G04*
G04 #@! TF.GenerationSoftware,Altium Limited,Altium Designer,21.1.1 (26)*
G04*
G04 Layer_Physical_Order=1*
G04 Layer_Color=255*
%FSLAX44Y44*%
%MOMM*%
G71*
G04*
G04 #@! TF.SameCoordinates,10801997-8E17-44FE-B4C4-5EB474501812*
G04*
G04*
G04 #@! TF.FilePolarity,Positive*
G04*
G01*
G75*
%ADD13C,0.2000*%
%ADD14C,0.1500*%
%ADD15C,0.2540*%
%ADD16R,3.4036X1.3970*%
%ADD17R,5.5880X2.3114*%
%ADD18R,1.1628X0.7620*%
%ADD19R,0.5500X1.8500*%
%ADD20R,0.9000X1.2000*%
%ADD21R,1.2000X0.9000*%
%ADD31C,1.5240*%
%ADD36C,1.2700*%
%ADD37C,1.1000*%
%ADD38O,1.9000X2.4000*%
%ADD39C,1.5000*%
%ADD40C,2.0000*%
%ADD41R,2.0000X2.0000*%
%ADD42C,1.3000*%
%ADD43R,1.5000X1.5000*%
%ADD44C,0.6000*%
%ADD45C,1.0000*%
G36*
X317232Y263244D02*
X250544D01*
Y276860D01*
X250068Y278008D01*
X248920Y278484D01*
X168910D01*
X167762Y278008D01*
X167286Y276860D01*
Y172434D01*
X166332Y171597D01*
X165100Y171759D01*
X162719Y171445D01*
X160501Y170526D01*
X158596Y169065D01*
X157134Y167159D01*
X156215Y164941D01*
X155901Y162560D01*
X155939Y162271D01*
X154736Y161678D01*
X146836Y169578D01*
X147666Y170661D01*
X148585Y172879D01*
X148899Y175260D01*
X148585Y177641D01*
X147666Y179859D01*
X146205Y181765D01*
X144299Y183226D01*
X142081Y184145D01*
X139700Y184459D01*
X137319Y184145D01*
X135101Y183226D01*
X133195Y181765D01*
X131734Y179859D01*
X130815Y177641D01*
X130501Y175260D01*
X130815Y172879D01*
X131734Y170661D01*
X133195Y168755D01*
X135101Y167294D01*
X137319Y166375D01*
X139700Y166061D01*
X142055Y166371D01*
X150846Y157580D01*
Y147438D01*
X149304Y145896D01*
X148228Y146616D01*
X148585Y147479D01*
X148899Y149860D01*
X148585Y152241D01*
X147666Y154459D01*
X146205Y156364D01*
X144299Y157826D01*
X142081Y158745D01*
X139700Y159059D01*
X137319Y158745D01*
X135101Y157826D01*
X133195Y156364D01*
X131734Y154459D01*
X130815Y152241D01*
X130501Y149860D01*
X130815Y147479D01*
X131550Y145704D01*
X86460Y100614D01*
X56779D01*
X56779Y100614D01*
X55698Y100399D01*
X54782Y99787D01*
X54782Y99787D01*
X40235Y85240D01*
X35529D01*
X35098Y86510D01*
X36137Y87307D01*
X37580Y89187D01*
X38486Y91376D01*
X38796Y93726D01*
X38486Y96075D01*
X37580Y98265D01*
X36137Y100145D01*
X34257Y101587D01*
X32067Y102494D01*
X29718Y102804D01*
X27369Y102494D01*
X25179Y101587D01*
X23299Y100145D01*
X21857Y98265D01*
X20950Y96075D01*
X20640Y93726D01*
X20950Y91376D01*
X21857Y89187D01*
X23299Y87307D01*
X24725Y86213D01*
X24776Y86032D01*
X24698Y84867D01*
X24639Y84745D01*
X24142Y84413D01*
X24142Y84413D01*
X18823Y79094D01*
X18447Y79250D01*
X16620Y79490D01*
X14793Y79250D01*
X13090Y78545D01*
X11628Y77422D01*
X11404Y77132D01*
X10134Y77563D01*
Y93770D01*
X22760Y106396D01*
X46990D01*
X46990Y106396D01*
X48071Y106611D01*
X48987Y107223D01*
X62957Y121193D01*
X62957Y121193D01*
X63569Y122109D01*
X63784Y123190D01*
Y127100D01*
X65694Y129010D01*
X67469Y128275D01*
X69850Y127961D01*
X72231Y128275D01*
X74449Y129194D01*
X76354Y130655D01*
X76607Y130984D01*
X77844Y130932D01*
X78281Y130751D01*
X78675Y130488D01*
X78838Y130520D01*
X78992Y130456D01*
X113030D01*
X114178Y130932D01*
X114654Y132080D01*
Y149152D01*
X116056Y149431D01*
X117544Y150426D01*
X118539Y151914D01*
X118888Y153670D01*
X118539Y155426D01*
X117544Y156914D01*
X116056Y157909D01*
X114654Y158188D01*
Y176530D01*
X114271Y177454D01*
X114253Y177897D01*
X114635Y179017D01*
X115227Y179412D01*
X115901Y180421D01*
X116138Y181610D01*
Y187932D01*
X117408Y188363D01*
X118549Y186875D01*
X120429Y185432D01*
X122619Y184526D01*
X124968Y184216D01*
X127317Y184526D01*
X129507Y185432D01*
X131387Y186875D01*
X132830Y188755D01*
X133736Y190944D01*
X134046Y193294D01*
X133736Y195644D01*
X132830Y197833D01*
X131387Y199713D01*
X129507Y201155D01*
X127317Y202062D01*
X124968Y202372D01*
X122619Y202062D01*
X120429Y201155D01*
X118549Y199713D01*
X117408Y198225D01*
X116138Y198656D01*
Y217170D01*
X115901Y218359D01*
X115227Y219368D01*
X114219Y220041D01*
X113030Y220278D01*
X108868D01*
X108568Y220218D01*
X108262D01*
X107979Y220101D01*
X107679Y220041D01*
X107424Y219871D01*
X107142Y219754D01*
X106925Y219538D01*
X106671Y219368D01*
X106501Y219113D01*
X106284Y218897D01*
X106260Y218860D01*
X105287Y218210D01*
X104140Y217982D01*
X102993Y218210D01*
X102020Y218860D01*
X101996Y218897D01*
X101779Y219113D01*
X101609Y219368D01*
X101355Y219538D01*
X101138Y219754D01*
X100856Y219871D01*
X100601Y220041D01*
X100301Y220101D01*
X100018Y220218D01*
X99712D01*
X99412Y220278D01*
X83115D01*
X82964Y220248D01*
X82810Y220263D01*
X82373Y220130D01*
X81926Y220041D01*
X81797Y219956D01*
X81650Y219911D01*
X81297Y219621D01*
X80917Y219368D01*
X80832Y219239D01*
X80713Y219142D01*
X79907Y218160D01*
X79834Y218024D01*
X79725Y217915D01*
X79551Y217493D01*
X79335Y217090D01*
X79320Y216937D01*
X79261Y216795D01*
Y216338D01*
X79238Y216100D01*
X78970Y214753D01*
X78320Y213780D01*
X78284Y213756D01*
X78067Y213540D01*
X77812Y213369D01*
X77642Y213115D01*
X77426Y212899D01*
X77309Y212616D01*
X77139Y212361D01*
X77079Y212061D01*
X76962Y211778D01*
Y211472D01*
X76902Y211172D01*
Y191418D01*
X76962Y191118D01*
Y190812D01*
X77079Y190529D01*
X77139Y190229D01*
X77309Y189974D01*
X77426Y189692D01*
X77642Y189475D01*
X77812Y189221D01*
X78067Y189051D01*
X78284Y188834D01*
X78320Y188810D01*
X78970Y187837D01*
X79198Y186690D01*
X78970Y185543D01*
X78344Y184607D01*
X78173Y184195D01*
X77961Y183803D01*
X77943Y183639D01*
X77880Y183486D01*
Y183041D01*
X77833Y182598D01*
X77880Y182439D01*
Y182274D01*
X78051Y181862D01*
X78177Y181435D01*
X78566Y180694D01*
X77939Y179497D01*
X77840Y179424D01*
X54595D01*
X54543Y179402D01*
X54489Y179420D01*
X54060Y179209D01*
X53345Y179024D01*
X52499Y179659D01*
X52416Y179859D01*
X50954Y181765D01*
X49049Y183226D01*
X46831Y184145D01*
X44450Y184459D01*
X42069Y184145D01*
X39851Y183226D01*
X37945Y181765D01*
X36484Y179859D01*
X36401Y179659D01*
X35555Y179024D01*
X34840Y179209D01*
X34411Y179420D01*
X34357Y179402D01*
X34305Y179424D01*
X23982D01*
X23637Y179281D01*
X23264Y179256D01*
X23085Y179052D01*
X22834Y178948D01*
X21518Y178848D01*
X20641Y179212D01*
X19009Y179426D01*
X18847Y180629D01*
X18847Y180729D01*
Y246129D01*
X18938Y246681D01*
X19804Y247366D01*
X23178D01*
X23888Y245651D01*
X25331Y243771D01*
X27211Y242328D01*
X29400Y241422D01*
X31750Y241112D01*
X34100Y241422D01*
X36289Y242328D01*
X38169Y243771D01*
X39611Y245651D01*
X40322Y247366D01*
X51533D01*
X51744Y246944D01*
X51873Y246096D01*
X49989Y244651D01*
X48380Y242553D01*
X47368Y240111D01*
X47191Y238760D01*
X57150D01*
X67109D01*
X66932Y240111D01*
X65920Y242553D01*
X64311Y244651D01*
X62427Y246096D01*
X62556Y246944D01*
X62767Y247366D01*
X114618D01*
X115329Y245651D01*
X116771Y243771D01*
X118651Y242328D01*
X120841Y241422D01*
X123190Y241112D01*
X125540Y241422D01*
X127729Y242328D01*
X129609Y243771D01*
X131052Y245651D01*
X131958Y247840D01*
X132268Y250190D01*
X131958Y252540D01*
X131052Y254729D01*
X129609Y256609D01*
X127729Y258051D01*
X125932Y258796D01*
X126185Y260066D01*
X140018D01*
X140729Y258351D01*
X142171Y256471D01*
X144051Y255028D01*
X146241Y254122D01*
X148590Y253812D01*
X150940Y254122D01*
X153129Y255028D01*
X155009Y256471D01*
X156452Y258351D01*
X157358Y260541D01*
X157668Y262890D01*
X157358Y265240D01*
X156452Y267429D01*
X155009Y269309D01*
X153129Y270751D01*
X150940Y271658D01*
X148590Y271968D01*
X146241Y271658D01*
X144051Y270751D01*
X142171Y269309D01*
X140729Y267429D01*
X140018Y265714D01*
X133097D01*
X132190Y266590D01*
X132190Y266984D01*
Y284590D01*
X114190D01*
Y278414D01*
X40750D01*
Y284590D01*
X34574D01*
Y289560D01*
X34359Y290641D01*
X33747Y291557D01*
X22283Y303021D01*
Y306560D01*
X26773D01*
Y317180D01*
X12145D01*
Y306560D01*
X16635D01*
Y301851D01*
X16635Y301851D01*
X16850Y300770D01*
X17462Y299854D01*
X28926Y288390D01*
Y284590D01*
X22750D01*
Y266590D01*
X40750D01*
Y272766D01*
X54155D01*
X54408Y271496D01*
X52611Y270751D01*
X50731Y269309D01*
X49289Y267429D01*
X48382Y265240D01*
X48072Y262890D01*
X48382Y260541D01*
X49289Y258351D01*
X50731Y256471D01*
X52611Y255028D01*
X54408Y254284D01*
X54155Y253014D01*
X40322D01*
X39611Y254729D01*
X38169Y256609D01*
X36289Y258051D01*
X34100Y258958D01*
X31750Y259268D01*
X29400Y258958D01*
X27211Y258051D01*
X25331Y256609D01*
X23888Y254729D01*
X23178Y253014D01*
X20220D01*
X9174Y264060D01*
Y318870D01*
X12600Y322296D01*
X35560D01*
X35560Y322296D01*
X36641Y322511D01*
X37557Y323123D01*
X42637Y328203D01*
X42637Y328203D01*
X43249Y329119D01*
X43464Y330200D01*
X43464Y330200D01*
Y344270D01*
X55370Y356176D01*
X95475D01*
X95756Y355756D01*
X97244Y354761D01*
X99000Y354412D01*
X99888Y354588D01*
X104683Y349793D01*
X105599Y349181D01*
X106680Y348966D01*
X109840D01*
Y344500D01*
X121840D01*
Y359500D01*
X109840D01*
Y354614D01*
X107850D01*
X103568Y358897D01*
X103588Y359000D01*
X103239Y360756D01*
X102244Y362244D01*
X100756Y363239D01*
X99000Y363588D01*
X97244Y363239D01*
X95756Y362244D01*
X95475Y361824D01*
X54200D01*
X53119Y361609D01*
X52203Y360997D01*
X52203Y360997D01*
X38643Y347437D01*
X38031Y346521D01*
X37816Y345440D01*
X37816Y345440D01*
Y331370D01*
X34390Y327944D01*
X11430D01*
X11430Y327944D01*
X10349Y327729D01*
X9433Y327117D01*
X9433Y327117D01*
X5348Y323032D01*
X4078Y323559D01*
Y365492D01*
X159950D01*
Y342830D01*
X182950D01*
Y365492D01*
X190683D01*
X190850Y364222D01*
X188648Y362532D01*
X186805Y360130D01*
X185646Y357332D01*
X185251Y354330D01*
X185646Y351328D01*
X186805Y348530D01*
X188648Y346128D01*
X191050Y344285D01*
X193848Y343126D01*
X196850Y342731D01*
X199852Y343126D01*
X202650Y344285D01*
X205052Y346128D01*
X206895Y348530D01*
X208054Y351328D01*
X208385Y353842D01*
X209666D01*
X210033Y351056D01*
X211296Y348006D01*
X213306Y345386D01*
X215926Y343376D01*
X218976Y342113D01*
X220980Y341849D01*
Y354330D01*
X222250D01*
Y355600D01*
X234731D01*
X234467Y357604D01*
X233204Y360654D01*
X231194Y363274D01*
X229958Y364222D01*
X230389Y365492D01*
X317232D01*
Y263244D01*
D02*
G37*
G36*
X113030Y181610D02*
X81595D01*
X80928Y182880D01*
X81897Y184330D01*
X82367Y186690D01*
X81897Y189050D01*
X80560Y191050D01*
X80010Y191418D01*
Y211172D01*
X80560Y211540D01*
X81897Y213540D01*
X82367Y215900D01*
X82309Y216188D01*
X83115Y217170D01*
X99412D01*
X99780Y216620D01*
X101780Y215283D01*
X104140Y214813D01*
X106500Y215283D01*
X108500Y216620D01*
X108868Y217170D01*
X113030D01*
Y181610D01*
D02*
G37*
G36*
X317232Y210820D02*
X287020D01*
Y223520D01*
X285750Y224790D01*
X212090Y224790D01*
Y250190D01*
X248920D01*
Y261620D01*
X317232D01*
Y210820D01*
D02*
G37*
G36*
X284480D02*
X285396D01*
X285872Y209672D01*
X287020Y209196D01*
X289349D01*
X289433Y207926D01*
X289003Y207870D01*
X287300Y207164D01*
X285838Y206042D01*
X284715Y204580D01*
X284010Y202877D01*
X283770Y201050D01*
X284010Y199223D01*
X284715Y197520D01*
X285838Y196057D01*
X287300Y194935D01*
X289003Y194230D01*
X290830Y193990D01*
X292657Y194230D01*
X294360Y194935D01*
X295822Y196057D01*
X296945Y197520D01*
X297650Y199223D01*
X297890Y201050D01*
X297650Y202877D01*
X296945Y204580D01*
X295822Y206042D01*
X294360Y207164D01*
X292657Y207870D01*
X292227Y207926D01*
X292311Y209196D01*
X317232D01*
Y185420D01*
X308270D01*
Y188107D01*
X249390D01*
Y161993D01*
X249420D01*
Y144893D01*
X252730D01*
Y140970D01*
X212444D01*
Y222250D01*
X284480D01*
Y210820D01*
D02*
G37*
G36*
X113030Y176530D02*
Y158006D01*
X112544Y157909D01*
X111056Y156914D01*
X110061Y155426D01*
X109712Y153670D01*
X110061Y151914D01*
X111056Y150426D01*
X112544Y149431D01*
X113030Y149334D01*
Y132080D01*
X78992D01*
X78143Y133350D01*
X78735Y134779D01*
X79049Y137160D01*
X78735Y139541D01*
X77816Y141759D01*
X76354Y143665D01*
X74449Y145126D01*
X72231Y146045D01*
X69850Y146359D01*
X67469Y146045D01*
X65251Y145126D01*
X63345Y143665D01*
X61884Y141759D01*
X60965Y139541D01*
X60651Y137160D01*
X60965Y134779D01*
X61700Y133004D01*
X60776Y132080D01*
X49501D01*
X49049Y132426D01*
X46831Y133345D01*
X44450Y133659D01*
X42069Y133345D01*
X39851Y132426D01*
X39399Y132080D01*
X5080D01*
Y177800D01*
X12058D01*
X12489Y176530D01*
X11601Y175849D01*
X10158Y173969D01*
X9252Y171779D01*
X8942Y169430D01*
X9252Y167080D01*
X10158Y164891D01*
X11601Y163011D01*
X13481Y161569D01*
X15670Y160662D01*
X16177Y160595D01*
X16177Y159314D01*
X15399Y159212D01*
X12957Y158200D01*
X10859Y156591D01*
X9250Y154493D01*
X8238Y152051D01*
X8061Y150700D01*
X18020D01*
X27979D01*
X27801Y152051D01*
X26790Y154493D01*
X25181Y156591D01*
X23083Y158200D01*
X20641Y159212D01*
X19863Y159314D01*
X19863Y160595D01*
X20370Y160662D01*
X22559Y161569D01*
X24439Y163011D01*
X25881Y164891D01*
X26788Y167080D01*
X27098Y169430D01*
X26788Y171779D01*
X25881Y173969D01*
X24439Y175849D01*
X23551Y176530D01*
X23982Y177800D01*
X34305D01*
X35419Y176530D01*
X35251Y175260D01*
X35565Y172879D01*
X36484Y170661D01*
X37945Y168755D01*
X39851Y167294D01*
X42069Y166375D01*
X44450Y166061D01*
X46831Y166375D01*
X49049Y167294D01*
X50954Y168755D01*
X52416Y170661D01*
X53335Y172879D01*
X53649Y175260D01*
X53481Y176530D01*
X54595Y177800D01*
X111760D01*
X113030Y176530D01*
D02*
G37*
G36*
X158596Y156055D02*
X160501Y154594D01*
X162719Y153675D01*
X165100Y153361D01*
X166332Y153523D01*
X167286Y152686D01*
Y147034D01*
X166332Y146197D01*
X165100Y146359D01*
X162719Y146045D01*
X160501Y145126D01*
X158596Y143665D01*
X157134Y141759D01*
X156215Y139541D01*
X155901Y137160D01*
X156215Y134779D01*
X157134Y132561D01*
X158596Y130655D01*
X160501Y129194D01*
X162719Y128275D01*
X165100Y127961D01*
X166332Y128123D01*
X167286Y127286D01*
Y121634D01*
X166332Y120797D01*
X165100Y120959D01*
X162719Y120645D01*
X160501Y119726D01*
X158596Y118265D01*
X157134Y116359D01*
X156215Y114141D01*
X155901Y111760D01*
X156215Y109379D01*
X157134Y107161D01*
X158596Y105255D01*
X160501Y103794D01*
X162719Y102875D01*
X165100Y102561D01*
X166332Y102723D01*
X167286Y101886D01*
Y72993D01*
X164244Y69950D01*
X163220Y70555D01*
X163146Y70648D01*
X163380Y72430D01*
X163140Y74257D01*
X162434Y75960D01*
X161312Y77422D01*
X159850Y78545D01*
X158147Y79250D01*
X156320Y79490D01*
X154493Y79250D01*
X152790Y78545D01*
X151327Y77422D01*
X150757Y76679D01*
X149183D01*
X148612Y77422D01*
X147150Y78545D01*
X145447Y79250D01*
X143620Y79490D01*
X141793Y79250D01*
X140090Y78545D01*
X138628Y77422D01*
X138057Y76679D01*
X136483D01*
X135912Y77422D01*
X134450Y78545D01*
X132747Y79250D01*
X130920Y79490D01*
X129093Y79250D01*
X127390Y78545D01*
X125927Y77422D01*
X125357Y76679D01*
X123783D01*
X123212Y77422D01*
X121750Y78545D01*
X120047Y79250D01*
X118220Y79490D01*
X116393Y79250D01*
X114690Y78545D01*
X113228Y77422D01*
X112657Y76679D01*
X111083D01*
X110512Y77422D01*
X109050Y78545D01*
X107347Y79250D01*
X105520Y79490D01*
X103693Y79250D01*
X101990Y78545D01*
X100527Y77422D01*
X99957Y76679D01*
X98383D01*
X97812Y77422D01*
X96350Y78545D01*
X94647Y79250D01*
X92820Y79490D01*
X90993Y79250D01*
X89290Y78545D01*
X87828Y77422D01*
X87257Y76679D01*
X85683D01*
X85112Y77422D01*
X83650Y78545D01*
X81947Y79250D01*
X80120Y79490D01*
X78293Y79250D01*
X76590Y78545D01*
X75128Y77422D01*
X74557Y76679D01*
X72983D01*
X72412Y77422D01*
X70950Y78545D01*
X69247Y79250D01*
X67420Y79490D01*
X65593Y79250D01*
X63890Y78545D01*
X62428Y77422D01*
X61857Y76679D01*
X60283D01*
X59712Y77422D01*
X58250Y78545D01*
X56547Y79250D01*
X54720Y79490D01*
X54356Y79443D01*
X53763Y80645D01*
X59194Y86076D01*
X85924D01*
X85924Y86076D01*
X87005Y86291D01*
X87921Y86903D01*
X128636Y127618D01*
X129507Y127240D01*
X129782Y126968D01*
X129620Y125730D01*
X139700D01*
X149781D01*
X149599Y127112D01*
X148575Y129584D01*
X146946Y131706D01*
X145074Y133143D01*
X145141Y134059D01*
X145330Y134488D01*
X145643Y134551D01*
X146559Y135163D01*
X155667Y144271D01*
X155667Y144271D01*
X156279Y145187D01*
X156494Y146268D01*
Y156708D01*
X157764Y157139D01*
X158596Y156055D01*
D02*
G37*
G36*
X35411Y129186D02*
X34551Y127112D01*
X34369Y125730D01*
X44450D01*
Y124460D01*
X45720D01*
Y114380D01*
X46456Y114476D01*
X47049Y113274D01*
X45820Y112044D01*
X21590D01*
X20509Y111829D01*
X19593Y111217D01*
X19593Y111217D01*
X5348Y96973D01*
X5196Y96979D01*
X4078Y97375D01*
Y129787D01*
X5080Y130456D01*
X34788D01*
X35411Y129186D01*
D02*
G37*
G36*
X248920Y263244D02*
X247772Y262768D01*
X247296Y261620D01*
Y251814D01*
X212090D01*
X210942Y251338D01*
X210466Y250190D01*
Y224790D01*
X210820Y223936D01*
Y110767D01*
X209893Y110147D01*
X209219Y109139D01*
X208982Y107950D01*
Y59707D01*
X190842Y41568D01*
X190169Y40559D01*
X189932Y39370D01*
Y5657D01*
X189994Y5348D01*
X189018Y4078D01*
X42020D01*
Y52670D01*
X43847Y52910D01*
X45550Y53615D01*
X47012Y54738D01*
X47583Y55482D01*
X49157D01*
X49728Y54738D01*
X51190Y53615D01*
X52893Y52910D01*
X54720Y52670D01*
X56547Y52910D01*
X58250Y53615D01*
X59712Y54738D01*
X60283Y55482D01*
X61857D01*
X62428Y54738D01*
X63890Y53615D01*
X65593Y52910D01*
X67420Y52670D01*
X69247Y52910D01*
X70950Y53615D01*
X72412Y54738D01*
X72983Y55482D01*
X74557D01*
X75128Y54738D01*
X76590Y53615D01*
X78293Y52910D01*
X80120Y52670D01*
X81947Y52910D01*
X83650Y53615D01*
X85112Y54738D01*
X85683Y55482D01*
X87257D01*
X87828Y54738D01*
X89290Y53615D01*
X90993Y52910D01*
X92820Y52670D01*
X94647Y52910D01*
X96350Y53615D01*
X97812Y54738D01*
X98383Y55482D01*
X99957D01*
X100527Y54738D01*
X101990Y53615D01*
X103693Y52910D01*
X105520Y52670D01*
X107347Y52910D01*
X109050Y53615D01*
X110512Y54738D01*
X111083Y55482D01*
X112657D01*
X113228Y54738D01*
X114690Y53615D01*
X116393Y52910D01*
X118220Y52670D01*
X120047Y52910D01*
X121750Y53615D01*
X123212Y54738D01*
X123783Y55482D01*
X125357D01*
X125927Y54738D01*
X127390Y53615D01*
X129093Y52910D01*
X130920Y52670D01*
X132747Y52910D01*
X134450Y53615D01*
X135912Y54738D01*
X136483Y55482D01*
X138057D01*
X138628Y54738D01*
X140090Y53615D01*
X141793Y52910D01*
X143620Y52670D01*
X145447Y52910D01*
X147150Y53615D01*
X148612Y54738D01*
X149183Y55482D01*
X150757D01*
X151327Y54738D01*
X152790Y53615D01*
X154493Y52910D01*
X156320Y52670D01*
X158147Y52910D01*
X159850Y53615D01*
X161312Y54738D01*
X162434Y56200D01*
X163140Y57903D01*
X163380Y59730D01*
X163140Y61557D01*
X162434Y63260D01*
X161312Y64722D01*
X168910Y72320D01*
Y103467D01*
X169699Y103794D01*
X171604Y105255D01*
X173066Y107161D01*
X173985Y109379D01*
X174299Y111760D01*
X173985Y114141D01*
X173066Y116359D01*
X171604Y118265D01*
X169699Y119726D01*
X168910Y120053D01*
Y128867D01*
X169699Y129194D01*
X171604Y130655D01*
X173066Y132561D01*
X173985Y134779D01*
X174299Y137160D01*
X173985Y139541D01*
X173066Y141759D01*
X171604Y143665D01*
X169699Y145126D01*
X168910Y145453D01*
Y154267D01*
X169699Y154594D01*
X171604Y156055D01*
X173066Y157961D01*
X173985Y160179D01*
X174299Y162560D01*
X173985Y164941D01*
X173066Y167159D01*
X171604Y169065D01*
X169699Y170526D01*
X168910Y170853D01*
Y276860D01*
X248920D01*
Y263244D01*
D02*
G37*
G36*
X270510Y74930D02*
X246380D01*
X231140Y59690D01*
Y5657D01*
X193040D01*
Y39370D01*
X212090Y58420D01*
Y107950D01*
X270510D01*
Y74930D01*
D02*
G37*
G36*
X317232Y18682D02*
X316833Y17577D01*
X258850D01*
Y4078D01*
X235162D01*
X234186Y5348D01*
X234248Y5657D01*
Y58403D01*
X247667Y71822D01*
X270510D01*
X271699Y72059D01*
X272708Y72733D01*
X273381Y73741D01*
X273618Y74930D01*
Y107950D01*
X273381Y109139D01*
X272708Y110147D01*
X271699Y110821D01*
X270510Y111058D01*
X212444D01*
Y139346D01*
X252730D01*
X253878Y139822D01*
X254354Y140970D01*
Y144893D01*
X253878Y146041D01*
X252730Y146517D01*
X251044D01*
Y160953D01*
X277560D01*
Y175050D01*
X278830D01*
Y176320D01*
X309310D01*
Y183796D01*
X317232D01*
Y18682D01*
D02*
G37*
G36*
X9956Y61933D02*
X9800Y61557D01*
X9560Y59730D01*
X9800Y57903D01*
X10505Y56200D01*
X11628Y54738D01*
X13090Y53615D01*
X14793Y52910D01*
X16620Y52670D01*
X18447Y52910D01*
X20150Y53615D01*
X21612Y54738D01*
X22183Y55482D01*
X23757D01*
X24327Y54738D01*
X25790Y53615D01*
X27493Y52910D01*
X29320Y52670D01*
X31147Y52910D01*
X32850Y53615D01*
X34312Y54738D01*
X34883Y55482D01*
X36457D01*
X37027Y54738D01*
X38490Y53615D01*
X39278Y53289D01*
X40396Y52670D01*
Y4078D01*
X15182D01*
Y20577D01*
X4850D01*
X4078Y21527D01*
Y66138D01*
X5196Y66535D01*
X5348Y66541D01*
X9956Y61933D01*
D02*
G37*
%LPC*%
G36*
X305240Y363400D02*
X296740D01*
Y353824D01*
X287525D01*
X287244Y354244D01*
X285756Y355239D01*
X284000Y355588D01*
X282244Y355239D01*
X280756Y354244D01*
X279761Y352756D01*
X279412Y351000D01*
X279761Y349244D01*
X280756Y347756D01*
X282244Y346761D01*
X284000Y346412D01*
X285756Y346761D01*
X287244Y347756D01*
X287525Y348176D01*
X296740D01*
Y344552D01*
X295740Y343900D01*
X295470Y343900D01*
X287240D01*
Y322839D01*
X287231Y322818D01*
X286198Y321850D01*
X285000Y322088D01*
X283244Y321739D01*
X281756Y320744D01*
X281141Y319824D01*
X279170D01*
X278414Y320580D01*
Y321990D01*
X279840D01*
Y343490D01*
X271380D01*
Y350970D01*
X267360D01*
Y340450D01*
X271340D01*
Y321990D01*
X272766D01*
Y319410D01*
X272766Y319410D01*
X272981Y318329D01*
X273593Y317413D01*
X276003Y315003D01*
X276003Y315003D01*
X276880Y314417D01*
X276903Y314311D01*
X276669Y313147D01*
X248350D01*
Y300320D01*
X278830D01*
X309310D01*
Y313147D01*
X302297D01*
X302172Y314417D01*
X302746Y314531D01*
X304234Y315526D01*
X305229Y317014D01*
X305578Y318770D01*
X305229Y320526D01*
X304234Y322014D01*
X302746Y323009D01*
X300990Y323358D01*
X299234Y323009D01*
X297746Y322014D01*
X296817Y321935D01*
X295740Y322910D01*
Y333487D01*
X297010Y333872D01*
X297756Y332756D01*
X299244Y331761D01*
X301000Y331412D01*
X301562Y331524D01*
X301933Y331153D01*
X301933Y331153D01*
X302849Y330541D01*
X303930Y330326D01*
X306240D01*
Y322400D01*
X314740D01*
Y343900D01*
X306510D01*
X306240Y343900D01*
X305240Y344552D01*
Y363400D01*
D02*
G37*
G36*
X271380Y364030D02*
X267360D01*
Y353510D01*
X271380D01*
Y364030D01*
D02*
G37*
G36*
X264820D02*
X260800D01*
Y353510D01*
X264820D01*
Y364030D01*
D02*
G37*
G36*
X234731Y353060D02*
X223520D01*
Y341849D01*
X225524Y342113D01*
X228574Y343376D01*
X231194Y345386D01*
X233204Y348006D01*
X234467Y351056D01*
X234731Y353060D01*
D02*
G37*
G36*
X142160Y359500D02*
X130160D01*
Y344500D01*
X135896D01*
Y337737D01*
X135190Y337444D01*
X133728Y336322D01*
X133157Y335578D01*
X131583D01*
X131012Y336322D01*
X129550Y337444D01*
X127847Y338150D01*
X126020Y338390D01*
X124193Y338150D01*
X122490Y337444D01*
X121027Y336322D01*
X120960Y336235D01*
X119690D01*
X119054Y337064D01*
X117375Y338353D01*
X115419Y339163D01*
X114590Y339272D01*
Y331330D01*
X112050D01*
Y339272D01*
X111221Y339163D01*
X109265Y338353D01*
X107586Y337064D01*
X106950Y336235D01*
X105680D01*
X105612Y336322D01*
X104150Y337444D01*
X102447Y338150D01*
X100620Y338390D01*
X98793Y338150D01*
X97090Y337444D01*
X95627Y336322D01*
X95057Y335578D01*
X93483D01*
X92912Y336322D01*
X91450Y337444D01*
X89747Y338150D01*
X87920Y338390D01*
X86093Y338150D01*
X84390Y337444D01*
X82928Y336322D01*
X82357Y335578D01*
X80783D01*
X80212Y336322D01*
X78750Y337444D01*
X77047Y338150D01*
X75220Y338390D01*
X73393Y338150D01*
X71690Y337444D01*
X70405Y336459D01*
X69135Y336777D01*
Y343680D01*
X54507D01*
Y333060D01*
X58208D01*
X59406Y332740D01*
X59621Y331659D01*
X60233Y330743D01*
X61503Y329473D01*
X61503Y329473D01*
X62419Y328861D01*
X63500Y328646D01*
X63500Y328646D01*
X68755D01*
X69106Y327800D01*
X70227Y326338D01*
X70971Y325767D01*
Y324193D01*
X70227Y323622D01*
X69106Y322160D01*
X68871Y321594D01*
X63500D01*
X63500Y321594D01*
X62419Y321379D01*
X61503Y320767D01*
X61503Y320767D01*
X60233Y319497D01*
X59621Y318581D01*
X59406Y317500D01*
X58208Y317180D01*
X54507D01*
Y306560D01*
X69135D01*
Y313183D01*
X70405Y313501D01*
X71690Y312516D01*
X73393Y311810D01*
X75220Y311570D01*
X77047Y311810D01*
X78750Y312516D01*
X80212Y313638D01*
X80783Y314382D01*
X82357D01*
X82928Y313638D01*
X84390Y312516D01*
X86093Y311810D01*
X87920Y311570D01*
X89747Y311810D01*
X91450Y312516D01*
X92912Y313638D01*
X93483Y314382D01*
X95057D01*
X95627Y313638D01*
X97090Y312516D01*
X98793Y311810D01*
X100620Y311570D01*
X102447Y311810D01*
X104150Y312516D01*
X105612Y313638D01*
X105680Y313725D01*
X106950D01*
X107586Y312896D01*
X109265Y311607D01*
X111221Y310797D01*
X112050Y310688D01*
Y318630D01*
X114590D01*
Y310688D01*
X115419Y310797D01*
X117375Y311607D01*
X119054Y312896D01*
X119690Y313725D01*
X120960D01*
X121027Y313638D01*
X122490Y312516D01*
X124193Y311810D01*
X126020Y311570D01*
X127847Y311810D01*
X129550Y312516D01*
X131012Y313638D01*
X131583Y314382D01*
X133157D01*
X133728Y313638D01*
X135190Y312516D01*
X136893Y311810D01*
X138720Y311570D01*
X140547Y311810D01*
X142250Y312516D01*
X143712Y313638D01*
X143779Y313725D01*
X145050D01*
X145686Y312896D01*
X147365Y311607D01*
X149321Y310797D01*
X150150Y310688D01*
Y318630D01*
X152690D01*
Y310688D01*
X153519Y310797D01*
X155475Y311607D01*
X157154Y312896D01*
X157790Y313725D01*
X159060D01*
X159128Y313638D01*
X160590Y312516D01*
X162293Y311810D01*
X164120Y311570D01*
X165947Y311810D01*
X167650Y312516D01*
X169112Y313638D01*
X169683Y314382D01*
X171257D01*
X171828Y313638D01*
X173290Y312516D01*
X174993Y311810D01*
X176820Y311570D01*
X178647Y311810D01*
X180350Y312516D01*
X181812Y313638D01*
X182383Y314382D01*
X183957D01*
X184527Y313638D01*
X185990Y312516D01*
X187693Y311810D01*
X189520Y311570D01*
X191347Y311810D01*
X193050Y312516D01*
X194512Y313638D01*
X194580Y313725D01*
X195850D01*
X196486Y312896D01*
X198165Y311607D01*
X200121Y310797D01*
X200950Y310688D01*
Y318630D01*
X203490D01*
Y310688D01*
X204319Y310797D01*
X206275Y311607D01*
X207954Y312896D01*
X208590Y313725D01*
X209860D01*
X209928Y313638D01*
X211390Y312516D01*
X213093Y311810D01*
X214920Y311570D01*
X216747Y311810D01*
X218450Y312516D01*
X219912Y313638D01*
X220483Y314382D01*
X222057D01*
X222628Y313638D01*
X224090Y312516D01*
X225793Y311810D01*
X227620Y311570D01*
X229447Y311810D01*
X231150Y312516D01*
X232612Y313638D01*
X233183Y314382D01*
X234757D01*
X235327Y313638D01*
X236790Y312516D01*
X238493Y311810D01*
X240320Y311570D01*
X242147Y311810D01*
X243850Y312516D01*
X245312Y313638D01*
X246434Y315100D01*
X247140Y316803D01*
X247380Y318630D01*
X247140Y320457D01*
X246434Y322160D01*
X245312Y323622D01*
X244569Y324193D01*
Y325767D01*
X245312Y326338D01*
X246434Y327800D01*
X247140Y329503D01*
X247380Y331330D01*
X247140Y333157D01*
X246434Y334860D01*
X245312Y336322D01*
X243850Y337444D01*
X242147Y338150D01*
X240320Y338390D01*
X238493Y338150D01*
X236790Y337444D01*
X235327Y336322D01*
X234757Y335578D01*
X233183D01*
X232612Y336322D01*
X231150Y337444D01*
X229447Y338150D01*
X227620Y338390D01*
X225793Y338150D01*
X224090Y337444D01*
X222628Y336322D01*
X222057Y335578D01*
X220483D01*
X219912Y336322D01*
X218450Y337444D01*
X216747Y338150D01*
X214920Y338390D01*
X213093Y338150D01*
X211390Y337444D01*
X209928Y336322D01*
X209860Y336235D01*
X208590D01*
X207954Y337064D01*
X206275Y338353D01*
X204319Y339163D01*
X203490Y339272D01*
Y331330D01*
X200950D01*
Y339272D01*
X200121Y339163D01*
X198165Y338353D01*
X196486Y337064D01*
X195850Y336235D01*
X194580D01*
X194512Y336322D01*
X193050Y337444D01*
X191347Y338150D01*
X189520Y338390D01*
X187693Y338150D01*
X185990Y337444D01*
X184527Y336322D01*
X183957Y335578D01*
X182383D01*
X181812Y336322D01*
X180350Y337444D01*
X178647Y338150D01*
X176820Y338390D01*
X174993Y338150D01*
X173290Y337444D01*
X171828Y336322D01*
X171257Y335578D01*
X169683D01*
X169112Y336322D01*
X167650Y337444D01*
X165947Y338150D01*
X164120Y338390D01*
X162293Y338150D01*
X160590Y337444D01*
X159128Y336322D01*
X158557Y335578D01*
X156983D01*
X156412Y336322D01*
X154950Y337444D01*
X153247Y338150D01*
X151420Y338390D01*
X149593Y338150D01*
X147890Y337444D01*
X146427Y336322D01*
X145857Y335578D01*
X144283D01*
X143712Y336322D01*
X142250Y337444D01*
X141544Y337737D01*
Y344500D01*
X142160D01*
Y359500D01*
D02*
G37*
G36*
X19050Y353838D02*
X17294Y353489D01*
X15806Y352494D01*
X14811Y351006D01*
X14462Y349250D01*
X14811Y347494D01*
X15806Y346006D01*
X16226Y345725D01*
Y343680D01*
X12145D01*
Y333060D01*
X26773D01*
Y343680D01*
X21874D01*
Y345725D01*
X22294Y346006D01*
X23289Y347494D01*
X23638Y349250D01*
X23289Y351006D01*
X22294Y352494D01*
X20806Y353489D01*
X19050Y353838D01*
D02*
G37*
G36*
X242530Y353878D02*
X240774Y353529D01*
X239286Y352534D01*
X238291Y351046D01*
X237942Y349290D01*
X238291Y347534D01*
X239286Y346046D01*
X240774Y345051D01*
X242530Y344702D01*
X244286Y345051D01*
X245774Y346046D01*
X246055Y346466D01*
X253766D01*
Y343490D01*
X252340D01*
Y321990D01*
X260840D01*
Y340450D01*
X264820D01*
Y350970D01*
X260800D01*
Y343490D01*
X259414D01*
Y347802D01*
X259199Y348883D01*
X258587Y349799D01*
X258587Y349799D01*
X257099Y351287D01*
X256183Y351899D01*
X255102Y352114D01*
X255102Y352114D01*
X246055D01*
X245774Y352534D01*
X244286Y353529D01*
X242530Y353878D01*
D02*
G37*
G36*
X219710Y306848D02*
X217954Y306499D01*
X216466Y305504D01*
X215471Y304016D01*
X215122Y302260D01*
X215471Y300504D01*
X216466Y299016D01*
X217954Y298021D01*
X219710Y297672D01*
X221466Y298021D01*
X222954Y299016D01*
X223949Y300504D01*
X224298Y302260D01*
X223949Y304016D01*
X222954Y305504D01*
X221466Y306499D01*
X219710Y306848D01*
D02*
G37*
G36*
X309310Y297780D02*
X280100D01*
Y284953D01*
X309310D01*
Y297780D01*
D02*
G37*
G36*
X277560D02*
X248350D01*
Y284953D01*
X277560D01*
Y297780D01*
D02*
G37*
G36*
X141190Y298668D02*
X138841Y298358D01*
X136651Y297451D01*
X134771Y296009D01*
X133329Y294129D01*
X132422Y291940D01*
X132112Y289590D01*
X132422Y287241D01*
X133329Y285051D01*
X134771Y283171D01*
X136651Y281728D01*
X138841Y280822D01*
X141190Y280512D01*
X143539Y280822D01*
X145729Y281728D01*
X147609Y283171D01*
X149051Y285051D01*
X149958Y287241D01*
X150268Y289590D01*
X149958Y291940D01*
X149051Y294129D01*
X147609Y296009D01*
X145729Y297451D01*
X143539Y298358D01*
X141190Y298668D01*
D02*
G37*
G36*
X49750D02*
X47400Y298358D01*
X45211Y297451D01*
X43331Y296009D01*
X41888Y294129D01*
X40982Y291940D01*
X40672Y289590D01*
X40982Y287241D01*
X41888Y285051D01*
X43331Y283171D01*
X45211Y281728D01*
X47400Y280822D01*
X49750Y280512D01*
X52099Y280822D01*
X54289Y281728D01*
X56169Y283171D01*
X57611Y285051D01*
X58518Y287241D01*
X58828Y289590D01*
X58518Y291940D01*
X57611Y294129D01*
X56169Y296009D01*
X54289Y297451D01*
X52099Y298358D01*
X49750Y298668D01*
D02*
G37*
G36*
X290830Y280110D02*
X289003Y279870D01*
X287300Y279165D01*
X285838Y278042D01*
X284715Y276580D01*
X284010Y274877D01*
X283770Y273050D01*
X284010Y271223D01*
X284715Y269520D01*
X285838Y268058D01*
X287300Y266936D01*
X289003Y266230D01*
X290830Y265990D01*
X292657Y266230D01*
X294360Y266936D01*
X295822Y268058D01*
X296945Y269520D01*
X297650Y271223D01*
X297890Y273050D01*
X297650Y274877D01*
X296945Y276580D01*
X295822Y278042D01*
X294360Y279165D01*
X292657Y279870D01*
X290830Y280110D01*
D02*
G37*
G36*
X149860Y247449D02*
Y238760D01*
X158549D01*
X158372Y240111D01*
X157360Y242553D01*
X155751Y244651D01*
X153653Y246260D01*
X151211Y247272D01*
X149860Y247449D01*
D02*
G37*
G36*
X147320D02*
X145969Y247272D01*
X143527Y246260D01*
X141429Y244651D01*
X139820Y242553D01*
X138808Y240111D01*
X138631Y238760D01*
X147320D01*
Y247449D01*
D02*
G37*
G36*
X158549Y236220D02*
X149860D01*
Y227531D01*
X151211Y227708D01*
X153653Y228720D01*
X155751Y230329D01*
X157360Y232427D01*
X158372Y234869D01*
X158549Y236220D01*
D02*
G37*
G36*
X67109D02*
X58420D01*
Y227531D01*
X59771Y227708D01*
X62213Y228720D01*
X64311Y230329D01*
X65920Y232427D01*
X66932Y234869D01*
X67109Y236220D01*
D02*
G37*
G36*
X147320D02*
X138631D01*
X138808Y234869D01*
X139820Y232427D01*
X141429Y230329D01*
X143527Y228720D01*
X145969Y227708D01*
X147320Y227531D01*
Y236220D01*
D02*
G37*
G36*
X55880D02*
X47191D01*
X47368Y234869D01*
X48380Y232427D01*
X49989Y230329D01*
X52087Y228720D01*
X54529Y227708D01*
X55880Y227531D01*
Y236220D01*
D02*
G37*
G36*
X29718Y202372D02*
X27369Y202062D01*
X25179Y201155D01*
X23299Y199713D01*
X21857Y197833D01*
X20950Y195644D01*
X20640Y193294D01*
X20950Y190944D01*
X21857Y188755D01*
X23299Y186875D01*
X25179Y185432D01*
X27369Y184526D01*
X29718Y184216D01*
X32067Y184526D01*
X34257Y185432D01*
X36137Y186875D01*
X37580Y188755D01*
X38486Y190944D01*
X38796Y193294D01*
X38486Y195644D01*
X37580Y197833D01*
X36137Y199713D01*
X34257Y201155D01*
X32067Y202062D01*
X29718Y202372D01*
D02*
G37*
G36*
X69850Y120959D02*
X67469Y120645D01*
X65251Y119726D01*
X63345Y118265D01*
X61884Y116359D01*
X60965Y114141D01*
X60651Y111760D01*
X60965Y109379D01*
X61884Y107161D01*
X63345Y105255D01*
X65251Y103794D01*
X67469Y102875D01*
X69850Y102561D01*
X72231Y102875D01*
X74449Y103794D01*
X76354Y105255D01*
X77816Y107161D01*
X78735Y109379D01*
X79049Y111760D01*
X78735Y114141D01*
X77816Y116359D01*
X76354Y118265D01*
X74449Y119726D01*
X72231Y120645D01*
X69850Y120959D01*
D02*
G37*
G36*
X108870Y174680D02*
X101600D01*
Y168910D01*
X108870D01*
Y174680D01*
D02*
G37*
G36*
X99060D02*
X91790D01*
Y168910D01*
X99060D01*
Y174680D01*
D02*
G37*
G36*
X108870Y166370D02*
X101600D01*
Y160600D01*
X108870D01*
Y166370D01*
D02*
G37*
G36*
X99060D02*
X91790D01*
Y160600D01*
X99060D01*
Y166370D01*
D02*
G37*
G36*
X69850Y171759D02*
X67469Y171445D01*
X65251Y170526D01*
X63345Y169065D01*
X61884Y167159D01*
X60965Y164941D01*
X60651Y162560D01*
X60965Y160179D01*
X61884Y157961D01*
X63345Y156055D01*
X65251Y154594D01*
X67469Y153675D01*
X69850Y153361D01*
X72231Y153675D01*
X74449Y154594D01*
X76354Y156055D01*
X77816Y157961D01*
X78735Y160179D01*
X79049Y162560D01*
X78735Y164941D01*
X77816Y167159D01*
X76354Y169065D01*
X74449Y170526D01*
X72231Y171445D01*
X69850Y171759D01*
D02*
G37*
G36*
X44450Y159059D02*
X42069Y158745D01*
X39851Y157826D01*
X37945Y156364D01*
X36484Y154459D01*
X35565Y152241D01*
X35251Y149860D01*
X35565Y147479D01*
X36484Y145261D01*
X37945Y143356D01*
X39851Y141894D01*
X42069Y140975D01*
X44450Y140661D01*
X46831Y140975D01*
X49049Y141894D01*
X50954Y143356D01*
X52416Y145261D01*
X53335Y147479D01*
X53649Y149860D01*
X53335Y152241D01*
X52416Y154459D01*
X50954Y156364D01*
X49049Y157826D01*
X46831Y158745D01*
X44450Y159059D01*
D02*
G37*
G36*
X27979Y148160D02*
X19290D01*
Y139471D01*
X20641Y139648D01*
X23083Y140660D01*
X25181Y142269D01*
X26790Y144367D01*
X27801Y146809D01*
X27979Y148160D01*
D02*
G37*
G36*
X16750D02*
X8061D01*
X8238Y146809D01*
X9250Y144367D01*
X10859Y142269D01*
X12957Y140660D01*
X15399Y139648D01*
X16750Y139471D01*
Y148160D01*
D02*
G37*
G36*
X149781Y123190D02*
X140970D01*
Y114380D01*
X142352Y114562D01*
X144824Y115585D01*
X146946Y117214D01*
X148575Y119336D01*
X149599Y121808D01*
X149781Y123190D01*
D02*
G37*
G36*
X138430D02*
X129620D01*
X129802Y121808D01*
X130825Y119336D01*
X132454Y117214D01*
X134576Y115585D01*
X137048Y114562D01*
X138430Y114380D01*
Y123190D01*
D02*
G37*
G36*
X124968Y102804D02*
X122619Y102494D01*
X120429Y101587D01*
X118549Y100145D01*
X117107Y98265D01*
X116200Y96075D01*
X115890Y93726D01*
X116200Y91376D01*
X117107Y89187D01*
X118549Y87307D01*
X120429Y85864D01*
X122619Y84958D01*
X124968Y84648D01*
X127317Y84958D01*
X129507Y85864D01*
X131387Y87307D01*
X132830Y89187D01*
X133736Y91376D01*
X134046Y93726D01*
X133736Y96075D01*
X132830Y98265D01*
X131387Y100145D01*
X129507Y101587D01*
X127317Y102494D01*
X124968Y102804D01*
D02*
G37*
G36*
X43180Y123190D02*
X34369D01*
X34551Y121808D01*
X35575Y119336D01*
X37204Y117214D01*
X39326Y115585D01*
X41798Y114562D01*
X43180Y114380D01*
Y123190D01*
D02*
G37*
G36*
X175920Y48393D02*
X173048Y48015D01*
X170373Y46906D01*
X168075Y45143D01*
X166311Y42846D01*
X165203Y40170D01*
X164825Y37298D01*
Y32298D01*
X165203Y29426D01*
X166311Y26751D01*
X168075Y24453D01*
X170373Y22689D01*
X173048Y21581D01*
X175920Y21203D01*
X178792Y21581D01*
X181467Y22689D01*
X183765Y24453D01*
X185529Y26751D01*
X186637Y29426D01*
X187015Y32298D01*
Y37298D01*
X186637Y40170D01*
X185529Y42846D01*
X183765Y45143D01*
X181467Y46906D01*
X178792Y48015D01*
X175920Y48393D01*
D02*
G37*
G36*
X139420D02*
X136548Y48015D01*
X133872Y46906D01*
X131575Y45143D01*
X129811Y42846D01*
X128703Y40170D01*
X128325Y37298D01*
Y32298D01*
X128703Y29426D01*
X129811Y26751D01*
X131575Y24453D01*
X133872Y22689D01*
X136548Y21581D01*
X139420Y21203D01*
X142292Y21581D01*
X144967Y22689D01*
X147265Y24453D01*
X149029Y26751D01*
X150137Y29426D01*
X150515Y32298D01*
Y37298D01*
X150137Y40170D01*
X149029Y42846D01*
X147265Y45143D01*
X144967Y46906D01*
X142292Y48015D01*
X139420Y48393D01*
D02*
G37*
G36*
X102920D02*
X100048Y48015D01*
X97373Y46906D01*
X95075Y45143D01*
X93312Y42846D01*
X92203Y40170D01*
X91825Y37298D01*
Y32298D01*
X92203Y29426D01*
X93312Y26751D01*
X95075Y24453D01*
X97373Y22689D01*
X100048Y21581D01*
X102920Y21203D01*
X105792Y21581D01*
X108468Y22689D01*
X110765Y24453D01*
X112528Y26751D01*
X113637Y29426D01*
X114015Y32298D01*
Y37298D01*
X113637Y40170D01*
X112528Y42846D01*
X110765Y45143D01*
X108468Y46906D01*
X105792Y48015D01*
X102920Y48393D01*
D02*
G37*
G36*
X309310Y173780D02*
X280100D01*
Y160953D01*
X309310D01*
Y173780D01*
D02*
G37*
G36*
X290860Y139010D02*
X289033Y138770D01*
X287330Y138064D01*
X285868Y136942D01*
X284746Y135480D01*
X284040Y133777D01*
X283800Y131950D01*
X284040Y130123D01*
X284746Y128420D01*
X285868Y126958D01*
X287330Y125836D01*
X289033Y125130D01*
X290860Y124890D01*
X292687Y125130D01*
X294390Y125836D01*
X295852Y126958D01*
X296975Y128420D01*
X297680Y130123D01*
X297920Y131950D01*
X297680Y133777D01*
X296975Y135480D01*
X295852Y136942D01*
X294390Y138064D01*
X292687Y138770D01*
X290860Y139010D01*
D02*
G37*
G36*
Y91010D02*
X289033Y90770D01*
X287330Y90064D01*
X285868Y88942D01*
X284746Y87480D01*
X284040Y85777D01*
X283800Y83950D01*
X284040Y82123D01*
X284746Y80420D01*
X285868Y78958D01*
X287330Y77835D01*
X289033Y77130D01*
X290860Y76890D01*
X292687Y77130D01*
X294390Y77835D01*
X295852Y78958D01*
X296975Y80420D01*
X297680Y82123D01*
X297920Y83950D01*
X297680Y85777D01*
X296975Y87480D01*
X295852Y88942D01*
X294390Y90064D01*
X292687Y90770D01*
X290860Y91010D01*
D02*
G37*
%LPD*%
D13*
X8350Y7080D02*
X11682D01*
X10016D01*
Y17077D01*
X8350Y15411D01*
D14*
X261850Y14577D02*
Y6580D01*
Y10579D01*
X267182D01*
Y14577D01*
Y6580D01*
X275179Y14577D02*
X269847D01*
Y6580D01*
X275179D01*
X269847Y10579D02*
X272513D01*
X277845Y14577D02*
X280511D01*
X279178D01*
Y6580D01*
X277845D01*
X280511D01*
X289841Y13245D02*
X288508Y14577D01*
X285842D01*
X284509Y13245D01*
Y7913D01*
X285842Y6580D01*
X288508D01*
X289841Y7913D01*
Y10579D01*
X287175D01*
X292507D02*
X297838D01*
X300504Y14577D02*
Y9246D01*
X303170Y6580D01*
X305836Y9246D01*
Y14577D01*
X308502D02*
Y6580D01*
X312500D01*
X313833Y7913D01*
Y13245D01*
X312500Y14577D01*
X308502D01*
X7850Y238278D02*
Y243610D01*
X13182Y238278D01*
X14514D01*
X15847Y239611D01*
Y242277D01*
X14514Y243610D01*
Y235613D02*
X15847Y234280D01*
Y231614D01*
X14514Y230281D01*
X9183D01*
X7850Y231614D01*
Y234280D01*
X9183Y235613D01*
X14514D01*
X7850Y222284D02*
Y227615D01*
X13182Y222284D01*
X14514D01*
X15847Y223617D01*
Y226282D01*
X14514Y227615D01*
X7850Y219618D02*
Y216952D01*
Y218285D01*
X15847D01*
X14514Y219618D01*
X7850Y212953D02*
X13182Y207622D01*
X15847Y204956D02*
X14514D01*
X11849Y202290D01*
X14514Y199624D01*
X15847D01*
X11849Y202290D02*
X7850D01*
X14514Y191627D02*
X15847Y192960D01*
Y195625D01*
X14514Y196958D01*
X9183D01*
X7850Y195625D01*
Y192960D01*
X9183Y191627D01*
X7850Y188961D02*
X15847D01*
Y184962D01*
X14514Y183629D01*
X11849D01*
X10516Y184962D01*
Y188961D01*
Y186295D02*
X7850Y183629D01*
D15*
X54200Y359000D02*
X99000D01*
X40640Y345440D02*
X54200Y359000D01*
X299510Y351000D02*
X300990Y352480D01*
Y352650D01*
X284000Y351000D02*
X299510D01*
X301000Y336000D02*
X301080D01*
X303930Y333150D01*
X310490D01*
X291490D02*
X292005Y332635D01*
Y321578D02*
Y332635D01*
Y321578D02*
X294813Y318770D01*
X300990D01*
X278000Y317000D02*
X285000D01*
X275590Y319410D02*
Y332740D01*
Y319410D02*
X278000Y317000D01*
X136160Y352000D02*
X136370Y351790D01*
X138430D01*
X138720Y331330D02*
Y351500D01*
X138430Y351790D02*
X138720Y351500D01*
X106680Y351790D02*
X115630D01*
X115840Y352000D01*
X99060Y359410D02*
X106680Y351790D01*
X31750Y275590D02*
Y289560D01*
X19459Y301851D02*
Y311870D01*
Y301851D02*
X31750Y289560D01*
X60960Y123190D02*
Y128270D01*
X21590Y109220D02*
X46990D01*
X60960Y123190D01*
Y128270D02*
X69850Y137160D01*
X6350Y262890D02*
Y320040D01*
X40640Y330200D02*
Y345440D01*
X11430Y325120D02*
X35560D01*
X40640Y330200D01*
X6350Y320040D02*
X11430Y325120D01*
X56779Y97790D02*
X87630D01*
X134184Y137160D02*
X144562D01*
X58024Y88900D02*
X85924D01*
X87630Y97790D02*
X139700Y149860D01*
X85924Y88900D02*
X134184Y137160D01*
X7310Y94940D02*
X21590Y109220D01*
X7310Y68574D02*
Y94940D01*
X42020Y72896D02*
X58024Y88900D01*
X42020Y72430D02*
Y72896D01*
X139700Y172720D02*
X153670Y158750D01*
X144562Y137160D02*
X153670Y146268D01*
Y158750D01*
X139700Y172720D02*
Y175260D01*
X276960Y297180D02*
X278830Y299050D01*
X242530Y349290D02*
X255102D01*
X256590Y332740D02*
Y347802D01*
X255102Y349290D02*
X256590Y347802D01*
X57150Y262890D02*
X148590D01*
X31750Y250190D02*
X123190D01*
X31750Y275590D02*
X123190D01*
X61821Y311870D02*
X62230Y312279D01*
Y317500D01*
X63500Y318770D01*
X75080D02*
X75220Y318630D01*
X63500Y318770D02*
X75080D01*
X61821Y338370D02*
X62230Y337961D01*
Y332740D02*
Y337961D01*
Y332740D02*
X63500Y331470D01*
X75080D02*
X75220Y331330D01*
X63500Y331470D02*
X75080D01*
X6350Y262890D02*
X19050Y250190D01*
X31750D01*
X19050Y338779D02*
X19459Y338370D01*
X19050Y338779D02*
Y349250D01*
X138720Y331330D02*
X151420D01*
X163830Y318340D02*
X164120Y318630D01*
X26140Y82416D02*
X41405D01*
X16620Y72430D02*
Y72896D01*
X41405Y82416D02*
X56779Y97790D01*
X16620Y72896D02*
X26140Y82416D01*
X54720Y72430D02*
X55904Y73614D01*
X130920Y59264D02*
Y59730D01*
X7310Y68574D02*
X16154Y59730D01*
X16620D01*
X29320Y59264D02*
Y59730D01*
Y72430D02*
Y72896D01*
X450Y-560D02*
Y369440D01*
Y-560D02*
X320450D01*
Y369440D01*
X450D02*
X320450D01*
D16*
X229606Y95450D02*
D03*
Y120450D02*
D03*
X229830Y212050D02*
D03*
X229576Y237050D02*
D03*
Y262050D02*
D03*
D17*
X278860Y57950D02*
D03*
Y157950D02*
D03*
X278830Y175050D02*
D03*
Y299050D02*
D03*
D18*
X61821Y338370D02*
D03*
Y311870D02*
D03*
X19459Y338370D02*
D03*
Y311870D02*
D03*
D19*
X266090Y352240D02*
D03*
X256590Y332740D02*
D03*
X275590D02*
D03*
X300990Y352650D02*
D03*
X291490Y333150D02*
D03*
X310490D02*
D03*
D20*
X136160Y352000D02*
D03*
X115840D02*
D03*
D21*
X100330Y167640D02*
D03*
Y187960D02*
D03*
D31*
X69850Y162560D02*
D03*
Y111760D02*
D03*
Y137160D02*
D03*
X44450Y149860D02*
D03*
Y124460D02*
D03*
Y175260D02*
D03*
X165100Y162560D02*
D03*
Y111760D02*
D03*
Y137160D02*
D03*
X139700Y149860D02*
D03*
Y124460D02*
D03*
Y175260D02*
D03*
D36*
X264034Y60140D02*
X266424Y57750D01*
X264034Y155360D02*
X266424Y157750D01*
D37*
X290860Y131950D02*
D03*
Y83950D02*
D03*
X75220Y318630D02*
D03*
X87920D02*
D03*
X100620D02*
D03*
Y331330D02*
D03*
X113320Y318630D02*
D03*
Y331330D02*
D03*
X126020Y318630D02*
D03*
Y331330D02*
D03*
X138720Y318630D02*
D03*
Y331330D02*
D03*
X151420Y318630D02*
D03*
Y331330D02*
D03*
X164120Y318630D02*
D03*
Y331330D02*
D03*
X176820Y318630D02*
D03*
Y331330D02*
D03*
X189520Y318630D02*
D03*
Y331330D02*
D03*
X202220Y318630D02*
D03*
Y331330D02*
D03*
X214920Y318630D02*
D03*
Y331330D02*
D03*
X227620Y318630D02*
D03*
Y331330D02*
D03*
X240320Y318630D02*
D03*
Y331330D02*
D03*
X16620Y59730D02*
D03*
Y72430D02*
D03*
X29320Y59730D02*
D03*
Y72430D02*
D03*
X42020Y59730D02*
D03*
Y72430D02*
D03*
X54720Y59730D02*
D03*
Y72430D02*
D03*
X67420Y59730D02*
D03*
Y72430D02*
D03*
X80120Y59730D02*
D03*
Y72430D02*
D03*
X92820Y59730D02*
D03*
Y72430D02*
D03*
X105520Y59730D02*
D03*
Y72430D02*
D03*
X118220Y59730D02*
D03*
Y72430D02*
D03*
X130920Y59730D02*
D03*
Y72430D02*
D03*
X143620Y59730D02*
D03*
Y72430D02*
D03*
X156320Y59730D02*
D03*
Y72430D02*
D03*
X87920Y331330D02*
D03*
X75220D02*
D03*
X290830Y273050D02*
D03*
Y201050D02*
D03*
D38*
X248920Y34798D02*
D03*
X212420D02*
D03*
X175920D02*
D03*
X139420D02*
D03*
X102920D02*
D03*
X66420D02*
D03*
D39*
X18020Y169430D02*
D03*
Y149430D02*
D03*
X29718Y193294D02*
D03*
Y93726D02*
D03*
X124968Y193294D02*
D03*
Y93726D02*
D03*
X148590Y262890D02*
D03*
X123190Y250190D02*
D03*
X148590Y237490D02*
D03*
X57150Y262890D02*
D03*
X31750Y250190D02*
D03*
X57150Y237490D02*
D03*
D40*
X196850Y354330D02*
D03*
X222250D02*
D03*
D41*
X171450D02*
D03*
D42*
X141190Y289590D02*
D03*
X49750D02*
D03*
D43*
X123190Y275590D02*
D03*
X31750D02*
D03*
D44*
X99000Y359000D02*
D03*
X284000Y351000D02*
D03*
X301000Y336000D02*
D03*
X285000Y317500D02*
D03*
X21680Y115879D02*
D03*
X311000Y139000D02*
D03*
X311150Y127000D02*
D03*
Y115000D02*
D03*
X152400Y300990D02*
D03*
X101600Y302260D02*
D03*
X104140Y220980D02*
D03*
X76200Y186690D02*
D03*
X287020Y36830D02*
D03*
X267970D02*
D03*
X16510Y39370D02*
D03*
X31750D02*
D03*
X44450Y96520D02*
D03*
X15240Y87630D02*
D03*
X35560Y349250D02*
D03*
X20320Y289560D02*
D03*
X219710Y302260D02*
D03*
X167640Y297180D02*
D03*
X73760Y294653D02*
D03*
X58420Y215900D02*
D03*
X76200D02*
D03*
X114300Y153670D02*
D03*
X242530Y349290D02*
D03*
X19050Y349250D02*
D03*
X46990Y316230D02*
D03*
X300990Y318770D02*
D03*
D45*
X260350Y80000D02*
D03*
X243840D02*
D03*
X227330D02*
D03*
X89200Y208260D02*
D03*
X100330Y208280D02*
D03*
X308610Y219710D02*
D03*
Y236220D02*
D03*
Y252730D02*
D03*
X293370Y219710D02*
D03*
X257810Y252730D02*
D03*
X275590D02*
D03*
X293370D02*
D03*
Y236220D02*
D03*
X275590D02*
D03*
X257810D02*
D03*
X275590Y195580D02*
D03*
X241300Y163830D02*
D03*
X224790D02*
D03*
X275590Y212090D02*
D03*
X259080D02*
D03*
X224790Y180340D02*
D03*
X241300D02*
D03*
X259080Y195580D02*
D03*
X224790D02*
D03*
X241300D02*
D03*
M02*
