M48
;Layer_Color=9474304
;FILE_FORMAT=4:4
METRIC,LZ
;TYPE=PLATED
T1F00S00C0.2500
T2F00S00C0.6000
T3F00S00C0.7000
T4F00S00C0.8000
T5F00S00C1.1000
T6F00S00C1.2000
;TYPE=NON_PLATED
T7F00S00C1.1000
T8F00S00C1.5000
%
T01
X0026797Y0003683
X0028702
X0031115Y00115
X0004445Y0009652
X0001524Y0008763
X0002168Y00115879
X0001651Y0003937
X0003175
X000762Y0018669
Y002159
X0005842
X0010414Y0022098
X001016Y0030226
X0007376Y00294653
X0004699Y0031623
X0003556Y0034925
X0001905
X0002032Y0028956
X00099Y00359
X001524Y0030099
X0016764Y0029718
X0021971Y0030226
X0024253Y0034929
X00284Y00351
X00301Y00336
X0030099Y0031877
X00285Y003175
X00311Y00139
X0031115Y00127
X001143Y0015367
T02
X0011822Y0005973
Y0007243
X0013092
Y0005973
X0014362
Y0007243
X0015632
Y0005973
X0022733Y0008
X0024384
X0026035
X0010552Y0007243
X0009282
X0008012
X0006742
X0005472
X0004202
X0002932
X0001662
Y0005973
X0002932
X0004202
X0005472
X0006742
X0008012
X0009282
X0010552
X0010033Y0020828
X000892Y0020826
X0008792Y0031863
X0007522
Y0033133
X0008792
X0010062
Y0031863
X0011332
Y0033133
X0012602
Y0031863
X0013872
Y0033133
X0015142
Y0031863
X0016412
Y0033133
X0017682
Y0031863
X0018952
Y0033133
X0020222
Y0031863
X0021492
Y0033133
X0022762
Y0031863
X0024032
Y0033133
X0025781Y0025273
Y0023622
X0027559
Y0025273
X0029337
X0030861
Y0023622
X0029337
Y0021971
X0030861
X0027559Y0021209
Y0019558
X0025908
Y0021209
X002413Y0019558
Y0018034
Y0016383
X0022479
Y0018034
Y0019558
T03
X0001802Y0014943
Y0016943
T04
X001651Y0011176
X0006985
Y0013716
Y0016256
X0004445Y0014986
Y0012446
Y0017526
X0005715Y0023749
Y0026289
X0003175Y0027559
Y0025019
X0012319
Y0027559
X0014859Y0026289
Y0023749
X001397Y0017526
Y0014986
Y0012446
X001651Y0013716
Y0016256
T05
X0013942Y0003683
X0017592
X0021242
X0024892
X0010292
X0006642
T06
X0017145Y0035433
X0019685
X0022225
T07
X0029086Y0008395
Y0013195
X0029083Y0020105
Y0027305
T08
X00124968Y00093726
X00029718
Y00193294
X0004975Y0028959
X0014119
X00124968Y00193294
M30
