G04*
G04 #@! TF.GenerationSoftware,Altium Limited,Altium Designer,21.1.1 (26)*
G04*
G04 Layer_Color=8388736*
%FSLAX44Y44*%
%MOMM*%
G71*
G04*
G04 #@! TF.SameCoordinates,10801997-8E17-44FE-B4C4-5EB474501812*
G04*
G04*
G04 #@! TF.FilePolarity,Negative*
G04*
G01*
G75*
%ADD14C,0.1500*%
%ADD15C,0.2540*%
%ADD16R,3.4036X1.3970*%
%ADD18R,1.1628X0.7620*%
%ADD22R,5.7912X2.5146*%
%ADD23R,0.7532X2.0532*%
%ADD24R,1.1032X1.4032*%
%ADD25R,1.4032X1.1032*%
%ADD26C,1.3032*%
%ADD27O,2.1032X2.6032*%
%ADD28C,1.7032*%
%ADD29C,2.2032*%
%ADD30R,2.2032X2.2032*%
%ADD31C,1.5240*%
%ADD32C,1.5032*%
%ADD33R,1.7032X1.7032*%
%ADD34C,0.8032*%
%ADD35C,1.2032*%
D14*
X261850Y14577D02*
Y6580D01*
Y10579D01*
X267182D01*
Y14577D01*
Y6580D01*
X275179Y14577D02*
X269847D01*
Y6580D01*
X275179D01*
X269847Y10579D02*
X272513D01*
X277845Y14577D02*
X280511D01*
X279178D01*
Y6580D01*
X277845D01*
X280511D01*
X289841Y13245D02*
X288508Y14577D01*
X285842D01*
X284509Y13245D01*
Y7913D01*
X285842Y6580D01*
X288508D01*
X289841Y7913D01*
Y10579D01*
X287175D01*
X292507D02*
X297838D01*
X300504Y14577D02*
Y9246D01*
X303170Y6580D01*
X305836Y9246D01*
Y14577D01*
X308502D02*
Y6580D01*
X312500D01*
X313833Y7913D01*
Y13245D01*
X312500Y14577D01*
X308502D01*
X7850Y238278D02*
Y243610D01*
X13182Y238278D01*
X14514D01*
X15847Y239611D01*
Y242277D01*
X14514Y243610D01*
Y235613D02*
X15847Y234280D01*
Y231614D01*
X14514Y230281D01*
X9183D01*
X7850Y231614D01*
Y234280D01*
X9183Y235613D01*
X14514D01*
X7850Y222284D02*
Y227615D01*
X13182Y222284D01*
X14514D01*
X15847Y223617D01*
Y226282D01*
X14514Y227615D01*
X7850Y219618D02*
Y216952D01*
Y218285D01*
X15847D01*
X14514Y219618D01*
X7850Y212953D02*
X13182Y207622D01*
X15847Y204956D02*
X14514D01*
X11849Y202290D01*
X14514Y199624D01*
X15847D01*
X11849Y202290D02*
X7850D01*
X14514Y191627D02*
X15847Y192960D01*
Y195625D01*
X14514Y196958D01*
X9183D01*
X7850Y195625D01*
Y192960D01*
X9183Y191627D01*
X7850Y188961D02*
X15847D01*
Y184962D01*
X14514Y183629D01*
X11849D01*
X10516Y184962D01*
Y188961D01*
Y186295D02*
X7850Y183629D01*
D15*
X450Y-560D02*
Y369440D01*
Y-560D02*
X320450D01*
Y369440D01*
X450D02*
X320450D01*
D16*
X229606Y95450D02*
D03*
Y120450D02*
D03*
X229830Y212050D02*
D03*
X229576Y237050D02*
D03*
Y262050D02*
D03*
D18*
X61821Y338370D02*
D03*
Y311870D02*
D03*
X19459Y338370D02*
D03*
Y311870D02*
D03*
D22*
X278860Y57950D02*
D03*
Y157950D02*
D03*
X278830Y175050D02*
D03*
Y299050D02*
D03*
D23*
X266090Y352240D02*
D03*
X256590Y332740D02*
D03*
X275590D02*
D03*
X300990Y352650D02*
D03*
X291490Y333150D02*
D03*
X310490D02*
D03*
D24*
X136160Y352000D02*
D03*
X115840D02*
D03*
D25*
X100330Y167640D02*
D03*
Y187960D02*
D03*
D26*
X290860Y131950D02*
D03*
Y83950D02*
D03*
X75220Y318630D02*
D03*
X87920D02*
D03*
X100620D02*
D03*
Y331330D02*
D03*
X113320Y318630D02*
D03*
Y331330D02*
D03*
X126020Y318630D02*
D03*
Y331330D02*
D03*
X138720Y318630D02*
D03*
Y331330D02*
D03*
X151420Y318630D02*
D03*
Y331330D02*
D03*
X164120Y318630D02*
D03*
Y331330D02*
D03*
X176820Y318630D02*
D03*
Y331330D02*
D03*
X189520Y318630D02*
D03*
Y331330D02*
D03*
X202220Y318630D02*
D03*
Y331330D02*
D03*
X214920Y318630D02*
D03*
Y331330D02*
D03*
X227620Y318630D02*
D03*
Y331330D02*
D03*
X240320Y318630D02*
D03*
Y331330D02*
D03*
X16620Y59730D02*
D03*
Y72430D02*
D03*
X29320Y59730D02*
D03*
Y72430D02*
D03*
X42020Y59730D02*
D03*
Y72430D02*
D03*
X54720Y59730D02*
D03*
Y72430D02*
D03*
X67420Y59730D02*
D03*
Y72430D02*
D03*
X80120Y59730D02*
D03*
Y72430D02*
D03*
X92820Y59730D02*
D03*
Y72430D02*
D03*
X105520Y59730D02*
D03*
Y72430D02*
D03*
X118220Y59730D02*
D03*
Y72430D02*
D03*
X130920Y59730D02*
D03*
Y72430D02*
D03*
X143620Y59730D02*
D03*
Y72430D02*
D03*
X156320Y59730D02*
D03*
Y72430D02*
D03*
X87920Y331330D02*
D03*
X75220D02*
D03*
X290830Y273050D02*
D03*
Y201050D02*
D03*
D27*
X248920Y34798D02*
D03*
X212420D02*
D03*
X175920D02*
D03*
X139420D02*
D03*
X102920D02*
D03*
X66420D02*
D03*
D28*
X18020Y169430D02*
D03*
Y149430D02*
D03*
X29718Y193294D02*
D03*
Y93726D02*
D03*
X124968Y193294D02*
D03*
Y93726D02*
D03*
X148590Y262890D02*
D03*
X123190Y250190D02*
D03*
X148590Y237490D02*
D03*
X57150Y262890D02*
D03*
X31750Y250190D02*
D03*
X57150Y237490D02*
D03*
D29*
X196850Y354330D02*
D03*
X222250D02*
D03*
D30*
X171450D02*
D03*
D31*
X69850Y162560D02*
D03*
Y111760D02*
D03*
Y137160D02*
D03*
X44450Y149860D02*
D03*
Y124460D02*
D03*
Y175260D02*
D03*
X165100Y162560D02*
D03*
Y111760D02*
D03*
Y137160D02*
D03*
X139700Y149860D02*
D03*
Y124460D02*
D03*
Y175260D02*
D03*
D32*
X141190Y289590D02*
D03*
X49750D02*
D03*
D33*
X123190Y275590D02*
D03*
X31750D02*
D03*
D34*
X99000Y359000D02*
D03*
X284000Y351000D02*
D03*
X301000Y336000D02*
D03*
X285000Y317500D02*
D03*
X21680Y115879D02*
D03*
X311000Y139000D02*
D03*
X311150Y127000D02*
D03*
Y115000D02*
D03*
X152400Y300990D02*
D03*
X101600Y302260D02*
D03*
X104140Y220980D02*
D03*
X76200Y186690D02*
D03*
X287020Y36830D02*
D03*
X267970D02*
D03*
X16510Y39370D02*
D03*
X31750D02*
D03*
X44450Y96520D02*
D03*
X15240Y87630D02*
D03*
X35560Y349250D02*
D03*
X20320Y289560D02*
D03*
X219710Y302260D02*
D03*
X167640Y297180D02*
D03*
X73760Y294653D02*
D03*
X58420Y215900D02*
D03*
X76200D02*
D03*
X114300Y153670D02*
D03*
X242530Y349290D02*
D03*
X19050Y349250D02*
D03*
X46990Y316230D02*
D03*
X300990Y318770D02*
D03*
D35*
X260350Y80000D02*
D03*
X243840D02*
D03*
X227330D02*
D03*
X89200Y208260D02*
D03*
X100330Y208280D02*
D03*
X308610Y219710D02*
D03*
Y236220D02*
D03*
Y252730D02*
D03*
X293370Y219710D02*
D03*
X257810Y252730D02*
D03*
X275590D02*
D03*
X293370D02*
D03*
Y236220D02*
D03*
X275590D02*
D03*
X257810D02*
D03*
X275590Y195580D02*
D03*
X241300Y163830D02*
D03*
X224790D02*
D03*
X275590Y212090D02*
D03*
X259080D02*
D03*
X224790Y180340D02*
D03*
X241300D02*
D03*
X259080Y195580D02*
D03*
X224790D02*
D03*
X241300D02*
D03*
M02*
